solid OpenSCAD_Model
  facet normal 1 -0 0
    outer loop
      vertex 10 60 1.6
      vertex 10 127.4 0
      vertex 10 127.4 1.6
    endloop
  endfacet
  facet normal 1 0 0
    outer loop
      vertex 10 127.4 0
      vertex 10 60 1.6
      vertex 10 60 0
    endloop
  endfacet
  facet normal -1 0 0
    outer loop
      vertex 100 60 0
      vertex 100 127.4 1.6
      vertex 100 127.4 0
    endloop
  endfacet
  facet normal -1 -0 0
    outer loop
      vertex 100 127.4 1.6
      vertex 100 60 0
      vertex 100 60 1.6
    endloop
  endfacet
  facet normal 0 -1 0
    outer loop
      vertex 10 127.4 0
      vertex 100 127.4 1.6
      vertex 10 127.4 1.6
    endloop
  endfacet
  facet normal 0 -1 -0
    outer loop
      vertex 100 127.4 1.6
      vertex 10 127.4 0
      vertex 100 127.4 0
    endloop
  endfacet
  facet normal 1 -0 0
    outer loop
      vertex 1.6 60 28.4
      vertex 1.6 138.29 1.6
      vertex 1.6 138.29 28.4
    endloop
  endfacet
  facet normal 1 0 0
    outer loop
      vertex 1.6 138.29 1.6
      vertex 1.6 60 28.4
      vertex 1.6 60 1.6
    endloop
  endfacet
  facet normal 0 0 -1
    outer loop
      vertex 92 60 28.4
      vertex 108.4 138.29 28.4
      vertex 108.4 60 28.4
    endloop
  endfacet
  facet normal -0 0 -1
    outer loop
      vertex 108.4 138.29 28.4
      vertex 92 60 28.4
      vertex 92 138.29 28.4
    endloop
  endfacet
  facet normal 0 0 -1
    outer loop
      vertex 1.6 60 28.4
      vertex 18 138.29 28.4
      vertex 18 60 28.4
    endloop
  endfacet
  facet normal -0 0 -1
    outer loop
      vertex 18 138.29 28.4
      vertex 1.6 60 28.4
      vertex 1.6 138.29 28.4
    endloop
  endfacet
  facet normal -1 0 0
    outer loop
      vertex 108.4 60 1.6
      vertex 108.4 138.29 28.4
      vertex 108.4 138.29 1.6
    endloop
  endfacet
  facet normal -1 -0 0
    outer loop
      vertex 108.4 138.29 28.4
      vertex 108.4 60 1.6
      vertex 108.4 60 28.4
    endloop
  endfacet
  facet normal 0 -1 0
    outer loop
      vertex 1.6 138.29 28.4
      vertex 18 138.29 28
      vertex 18 138.29 28.4
    endloop
  endfacet
  facet normal 0 -1 -0
    outer loop
      vertex 18 138.29 28
      vertex 1.6 138.29 1.6
      vertex 92 138.29 28
    endloop
  endfacet
  facet normal 0 -1 0
    outer loop
      vertex 1.6 138.29 1.6
      vertex 18 138.29 28
      vertex 1.6 138.29 28.4
    endloop
  endfacet
  facet normal 0 -1 0
    outer loop
      vertex 92 138.29 28
      vertex 108.4 138.29 28.4
      vertex 92 138.29 28.4
    endloop
  endfacet
  facet normal 0 -1 0
    outer loop
      vertex 108.4 138.29 1.6
      vertex 92 138.29 28
      vertex 1.6 138.29 1.6
    endloop
  endfacet
  facet normal 0 -1 0
    outer loop
      vertex 92 138.29 28
      vertex 108.4 138.29 1.6
      vertex 108.4 138.29 28.4
    endloop
  endfacet
  facet normal 0 0 1
    outer loop
      vertex 108.4 138.29 1.6
      vertex 100 127.4 1.6
      vertex 108.4 60 1.6
    endloop
  endfacet
  facet normal 0 0 1
    outer loop
      vertex 108.4 138.29 1.6
      vertex 10 127.4 1.6
      vertex 100 127.4 1.6
    endloop
  endfacet
  facet normal -0 0 1
    outer loop
      vertex 1.6 138.29 1.6
      vertex 10 127.4 1.6
      vertex 108.4 138.29 1.6
    endloop
  endfacet
  facet normal 0 0 1
    outer loop
      vertex 1.6 60 1.6
      vertex 10 127.4 1.6
      vertex 1.6 138.29 1.6
    endloop
  endfacet
  facet normal 0 0 1
    outer loop
      vertex 10 127.4 1.6
      vertex 1.6 60 1.6
      vertex 10 60 1.6
    endloop
  endfacet
  facet normal 0 0 1
    outer loop
      vertex 108.4 60 1.6
      vertex 100 127.4 1.6
      vertex 100 60 1.6
    endloop
  endfacet
  facet normal 0 -0.052335 0.99863
    outer loop
      vertex 0 61.7943 30.3561
      vertex 18 60 30.262
      vertex 18 61.7943 30.3561
    endloop
  endfacet
  facet normal 0 -0.052335 0.99863
    outer loop
      vertex 18 60 30.262
      vertex 0 61.7943 30.3561
      vertex 0 60 30.262
    endloop
  endfacet
  facet normal 0 -0.052335 0.99863
    outer loop
      vertex 92 61.7943 30.3561
      vertex 110 60 30.262
      vertex 110 61.7943 30.3561
    endloop
  endfacet
  facet normal 0 -0.052335 0.99863
    outer loop
      vertex 110 60 30.262
      vertex 92 61.7943 30.3561
      vertex 92 60 30.262
    endloop
  endfacet
  facet normal 0 -0.707107 0.707107
    outer loop
      vertex 0 98.4935 46.6956
      vertex 18 103.304 51.5065
      vertex 0 103.304 51.5065
    endloop
  endfacet
  facet normal 0 -0.707107 0.707107
    outer loop
      vertex 18 103.304 51.5065
      vertex 0 98.4935 46.6956
      vertex 18 98.4935 46.6956
    endloop
  endfacet
  facet normal 0 -0.707107 0.707107
    outer loop
      vertex 92 98.4935 46.6956
      vertex 110 103.304 51.5065
      vertex 92 103.304 51.5065
    endloop
  endfacet
  facet normal 0 -0.707107 0.707107
    outer loop
      vertex 110 103.304 51.5065
      vertex 92 98.4935 46.6956
      vertex 110 98.4935 46.6956
    endloop
  endfacet
  facet normal 0 -0.965926 0.258818
    outer loop
      vertex 0 118.181 80
      vertex 18 117.11 76
      vertex 110 118.181 80
    endloop
  endfacet
  facet normal 1.40763e-007 -0.965926 0.258819
    outer loop
      vertex 0 116.819 74.9139
      vertex 18 117.11 76
      vertex 0 118.181 80
    endloop
  endfacet
  facet normal 0 -0.965925 0.258821
    outer loop
      vertex 18 117.11 76
      vertex 0 116.819 74.9139
      vertex 18 116.819 74.9139
    endloop
  endfacet
  facet normal 0 -0.965926 0.258818
    outer loop
      vertex 92 117.11 76
      vertex 110 118.181 80
      vertex 18 117.11 76
    endloop
  endfacet
  facet normal 0 -0.965925 0.258821
    outer loop
      vertex 110 116.819 74.9139
      vertex 92 117.11 76
      vertex 92 116.819 74.9139
    endloop
  endfacet
  facet normal -1.40763e-007 -0.965926 0.258819
    outer loop
      vertex 92 117.11 76
      vertex 110 116.819 74.9139
      vertex 110 118.181 80
    endloop
  endfacet
  facet normal 0 -0.93358 0.358368
    outer loop
      vertex 0 114.38 68.5621
      vertex 18 116.819 74.9139
      vertex 0 116.819 74.9139
    endloop
  endfacet
  facet normal 0 -0.93358 0.358368
    outer loop
      vertex 18 116.819 74.9139
      vertex 0 114.38 68.5621
      vertex 18 114.38 68.5621
    endloop
  endfacet
  facet normal 0 -0.93358 0.358368
    outer loop
      vertex 92 114.38 68.5621
      vertex 110 116.819 74.9139
      vertex 92 116.819 74.9139
    endloop
  endfacet
  facet normal 0 -0.93358 0.358368
    outer loop
      vertex 110 116.819 74.9139
      vertex 92 114.38 68.5621
      vertex 110 114.38 68.5621
    endloop
  endfacet
  facet normal 0 -0.156435 0.987688
    outer loop
      vertex 0 68.5143 31.4204
      vertex 18 61.7943 30.3561
      vertex 18 68.5143 31.4204
    endloop
  endfacet
  facet normal 0 -0.156435 0.987688
    outer loop
      vertex 18 61.7943 30.3561
      vertex 0 68.5143 31.4204
      vertex 0 61.7943 30.3561
    endloop
  endfacet
  facet normal 0 -0.156435 0.987688
    outer loop
      vertex 92 68.5143 31.4204
      vertex 110 61.7943 30.3561
      vertex 110 68.5143 31.4204
    endloop
  endfacet
  facet normal 0 -0.156435 0.987688
    outer loop
      vertex 110 61.7943 30.3561
      vertex 92 68.5143 31.4204
      vertex 92 61.7943 30.3561
    endloop
  endfacet
  facet normal 0 -0.358368 0.93358
    outer loop
      vertex 0 81.4379 35.6195
      vertex 18 75.0861 33.1813
      vertex 18 81.4379 35.6195
    endloop
  endfacet
  facet normal 0 -0.358368 0.93358
    outer loop
      vertex 18 75.0861 33.1813
      vertex 0 81.4379 35.6195
      vertex 0 75.0861 33.1813
    endloop
  endfacet
  facet normal 0 -0.358368 0.93358
    outer loop
      vertex 92 81.4379 35.6195
      vertex 110 75.0861 33.1813
      vertex 110 81.4379 35.6195
    endloop
  endfacet
  facet normal 0 -0.358368 0.93358
    outer loop
      vertex 110 75.0861 33.1813
      vertex 92 81.4379 35.6195
      vertex 92 75.0861 33.1813
    endloop
  endfacet
  facet normal 0 -0.544639 0.83867
    outer loop
      vertex 0 93.206 42.4139
      vertex 18 87.5 38.7083
      vertex 18 93.206 42.4139
    endloop
  endfacet
  facet normal 0 -0.544639 0.83867
    outer loop
      vertex 18 87.5 38.7083
      vertex 0 93.206 42.4139
      vertex 0 87.5 38.7083
    endloop
  endfacet
  facet normal 0 -0.544639 0.83867
    outer loop
      vertex 92 93.206 42.4139
      vertex 110 87.5 38.7083
      vertex 110 93.206 42.4139
    endloop
  endfacet
  facet normal 0 -0.544639 0.83867
    outer loop
      vertex 110 87.5 38.7083
      vertex 92 93.206 42.4139
      vertex 92 87.5 38.7083
    endloop
  endfacet
  facet normal 0 -0.62932 0.777146
    outer loop
      vertex 0 98.4935 46.6956
      vertex 18 93.206 42.4139
      vertex 18 98.4935 46.6956
    endloop
  endfacet
  facet normal 0 -0.62932 0.777146
    outer loop
      vertex 18 93.206 42.4139
      vertex 0 98.4935 46.6956
      vertex 0 93.206 42.4139
    endloop
  endfacet
  facet normal 0 -0.62932 0.777146
    outer loop
      vertex 92 98.4935 46.6956
      vertex 110 93.206 42.4139
      vertex 110 98.4935 46.6956
    endloop
  endfacet
  facet normal 0 -0.62932 0.777146
    outer loop
      vertex 110 93.206 42.4139
      vertex 92 98.4935 46.6956
      vertex 92 93.206 42.4139
    endloop
  endfacet
  facet normal 0 -0.45399 0.891007
    outer loop
      vertex 0 87.5 38.7083
      vertex 18 81.4379 35.6195
      vertex 18 87.5 38.7083
    endloop
  endfacet
  facet normal 0 -0.45399 0.891007
    outer loop
      vertex 18 81.4379 35.6195
      vertex 0 87.5 38.7083
      vertex 0 81.4379 35.6195
    endloop
  endfacet
  facet normal 0 -0.45399 0.891007
    outer loop
      vertex 92 87.5 38.7083
      vertex 110 81.4379 35.6195
      vertex 110 87.5 38.7083
    endloop
  endfacet
  facet normal 0 -0.45399 0.891007
    outer loop
      vertex 110 81.4379 35.6195
      vertex 92 87.5 38.7083
      vertex 92 81.4379 35.6195
    endloop
  endfacet
  facet normal 0 -0.777146 0.62932
    outer loop
      vertex 0 103.304 51.5065
      vertex 18 107.586 56.794
      vertex 0 107.586 56.794
    endloop
  endfacet
  facet normal 0 -0.777146 0.62932
    outer loop
      vertex 18 107.586 56.794
      vertex 0 103.304 51.5065
      vertex 18 103.304 51.5065
    endloop
  endfacet
  facet normal 0 -0.777146 0.62932
    outer loop
      vertex 92 103.304 51.5065
      vertex 110 107.586 56.794
      vertex 92 107.586 56.794
    endloop
  endfacet
  facet normal 0 -0.777146 0.62932
    outer loop
      vertex 110 107.586 56.794
      vertex 92 103.304 51.5065
      vertex 110 103.304 51.5065
    endloop
  endfacet
  facet normal 0 -0.258819 0.965926
    outer loop
      vertex 0 75.0861 33.1813
      vertex 18 68.5143 31.4204
      vertex 18 75.0861 33.1813
    endloop
  endfacet
  facet normal 0 -0.258819 0.965926
    outer loop
      vertex 18 68.5143 31.4204
      vertex 0 75.0861 33.1813
      vertex 0 68.5143 31.4204
    endloop
  endfacet
  facet normal 0 -0.258819 0.965926
    outer loop
      vertex 92 75.0861 33.1813
      vertex 110 68.5143 31.4204
      vertex 110 75.0861 33.1813
    endloop
  endfacet
  facet normal 0 -0.258819 0.965926
    outer loop
      vertex 110 68.5143 31.4204
      vertex 92 75.0861 33.1813
      vertex 92 68.5143 31.4204
    endloop
  endfacet
  facet normal 0 -0.89069 0.45461
    outer loop
      vertex 18 111.292 62.5
      vertex 0 111.294 62.5055
      vertex 0 111.292 62.5
    endloop
  endfacet
  facet normal -2.39005e-007 -0.891007 0.45399
    outer loop
      vertex 0 111.294 62.5055
      vertex 18 111.292 62.5
      vertex 18 111.799 63.4957
    endloop
  endfacet
  facet normal 0 -0.891006 0.453991
    outer loop
      vertex 110 111.292 62.5
      vertex 92 113.873 67.5664
      vertex 92 111.292 62.5
    endloop
  endfacet
  facet normal -2.68261e-007 -0.891007 0.45399
    outer loop
      vertex 92 113.873 67.5664
      vertex 110 111.292 62.5
      vertex 110 114.378 68.5566
    endloop
  endfacet
  facet normal 0 -0.891006 0.453991
    outer loop
      vertex 0 114.38 68.5621
      vertex 18 111.799 63.4957
      vertex 18 114.38 68.5621
    endloop
  endfacet
  facet normal -2.68261e-007 -0.891007 0.45399
    outer loop
      vertex 18 111.799 63.4957
      vertex 0 114.38 68.5621
      vertex 0 111.294 62.5055
    endloop
  endfacet
  facet normal 0 -0.89069 0.45461
    outer loop
      vertex 92 114.38 68.5621
      vertex 110 114.378 68.5566
      vertex 110 114.38 68.5621
    endloop
  endfacet
  facet normal -2.39005e-007 -0.891007 0.45399
    outer loop
      vertex 110 114.378 68.5566
      vertex 92 114.38 68.5621
      vertex 92 113.873 67.5664
    endloop
  endfacet
  facet normal -1.17774e-007 -0.83867 0.544639
    outer loop
      vertex 0 107.586 56.794
      vertex 18 110.683 61.5628
      vertex 0 111.288 62.4948
    endloop
  endfacet
  facet normal 0 -0.838671 0.544639
    outer loop
      vertex 18 110.683 61.5628
      vertex 0 107.586 56.794
      vertex 18 107.586 56.794
    endloop
  endfacet
  facet normal 1.9659e-008 -0.838672 0.544636
    outer loop
      vertex 92 107.586 56.794
      vertex 110 107.589 56.7991
      vertex 92 108.195 57.7312
    endloop
  endfacet
  facet normal 0 -0.838641 0.544684
    outer loop
      vertex 110 107.589 56.7991
      vertex 92 107.586 56.794
      vertex 110 107.586 56.794
    endloop
  endfacet
  facet normal 0 -0.839205 0.543815
    outer loop
      vertex 0 111.288 62.4948
      vertex 18 111.292 62.5
      vertex 0 111.292 62.5
    endloop
  endfacet
  facet normal -3.35817e-007 -0.838672 0.544636
    outer loop
      vertex 18 111.292 62.5
      vertex 0 111.288 62.4948
      vertex 18 110.683 61.5628
    endloop
  endfacet
  facet normal 0 -0.838671 0.544639
    outer loop
      vertex 92 108.195 57.7312
      vertex 110 111.292 62.5
      vertex 92 111.292 62.5
    endloop
  endfacet
  facet normal 1.79585e-007 -0.838671 0.544639
    outer loop
      vertex 110 111.292 62.5
      vertex 92 108.195 57.7312
      vertex 110 107.589 56.7991
    endloop
  endfacet
  facet normal 1 0 0
    outer loop
      vertex 18 139 76
      vertex 18 138.29 28.4
      vertex 18 139 28
    endloop
  endfacet
  facet normal 1 0 0
    outer loop
      vertex 18 116.819 74.9139
      vertex 18 139 76
      vertex 18 117.11 76
    endloop
  endfacet
  facet normal 1 0 0
    outer loop
      vertex 18 114.38 68.5621
      vertex 18 139 76
      vertex 18 116.819 74.9139
    endloop
  endfacet
  facet normal 1 0 0
    outer loop
      vertex 18 111.799 63.4957
      vertex 18 139 76
      vertex 18 114.38 68.5621
    endloop
  endfacet
  facet normal 1 0 0
    outer loop
      vertex 18 139 76
      vertex 18 111.799 63.4957
      vertex 18 138.29 28.4
    endloop
  endfacet
  facet normal 1 -0 0
    outer loop
      vertex 18 111.292 62.5
      vertex 18 138.29 28.4
      vertex 18 111.799 63.4957
    endloop
  endfacet
  facet normal 1 -0 0
    outer loop
      vertex 18 110.683 61.5628
      vertex 18 138.29 28.4
      vertex 18 111.292 62.5
    endloop
  endfacet
  facet normal 1 -0 0
    outer loop
      vertex 18 107.586 56.794
      vertex 18 138.29 28.4
      vertex 18 110.683 61.5628
    endloop
  endfacet
  facet normal 1 -0 0
    outer loop
      vertex 18 103.304 51.5065
      vertex 18 138.29 28.4
      vertex 18 107.586 56.794
    endloop
  endfacet
  facet normal 1 -0 0
    outer loop
      vertex 18 98.4935 46.6956
      vertex 18 138.29 28.4
      vertex 18 103.304 51.5065
    endloop
  endfacet
  facet normal 1 -0 0
    outer loop
      vertex 18 93.206 42.4139
      vertex 18 138.29 28.4
      vertex 18 98.4935 46.6956
    endloop
  endfacet
  facet normal 1 -0 0
    outer loop
      vertex 18 87.5 38.7083
      vertex 18 138.29 28.4
      vertex 18 93.206 42.4139
    endloop
  endfacet
  facet normal 1 -0 0
    outer loop
      vertex 18 81.4379 35.6195
      vertex 18 138.29 28.4
      vertex 18 87.5 38.7083
    endloop
  endfacet
  facet normal 1 -0 0
    outer loop
      vertex 18 75.0861 33.1813
      vertex 18 138.29 28.4
      vertex 18 81.4379 35.6195
    endloop
  endfacet
  facet normal 1 -0 0
    outer loop
      vertex 18 68.5143 31.4204
      vertex 18 138.29 28.4
      vertex 18 75.0861 33.1813
    endloop
  endfacet
  facet normal 1 0 0
    outer loop
      vertex 18 60 28.4
      vertex 18 68.5143 31.4204
      vertex 18 61.7943 30.3561
    endloop
  endfacet
  facet normal 1 0 0
    outer loop
      vertex 18 60 28.4
      vertex 18 61.7943 30.3561
      vertex 18 60 30.262
    endloop
  endfacet
  facet normal 1 0 0
    outer loop
      vertex 18 68.5143 31.4204
      vertex 18 60 28.4
      vertex 18 138.29 28.4
    endloop
  endfacet
  facet normal 1 0 0
    outer loop
      vertex 18 139 28
      vertex 18 138.29 28.4
      vertex 18 138.29 28
    endloop
  endfacet
  facet normal 0 0 -1
    outer loop
      vertex 18 117.11 76
      vertex 92 139 76
      vertex 92 117.11 76
    endloop
  endfacet
  facet normal -0 0 -1
    outer loop
      vertex 92 139 76
      vertex 18 117.11 76
      vertex 18 139 76
    endloop
  endfacet
  facet normal -1 0 0
    outer loop
      vertex 92 138.29 28.4
      vertex 92 139 28
      vertex 92 138.29 28
    endloop
  endfacet
  facet normal -1 0 0
    outer loop
      vertex 92 139 28
      vertex 92 138.29 28.4
      vertex 92 139 76
    endloop
  endfacet
  facet normal -1 0 0
    outer loop
      vertex 92 111.292 62.5
      vertex 92 139 76
      vertex 92 138.29 28.4
    endloop
  endfacet
  facet normal -1 -0 0
    outer loop
      vertex 92 139 76
      vertex 92 116.819 74.9139
      vertex 92 117.11 76
    endloop
  endfacet
  facet normal -1 0 0
    outer loop
      vertex 92 139 76
      vertex 92 114.38 68.5621
      vertex 92 116.819 74.9139
    endloop
  endfacet
  facet normal -1 0 0
    outer loop
      vertex 92 139 76
      vertex 92 113.873 67.5664
      vertex 92 114.38 68.5621
    endloop
  endfacet
  facet normal -1 0 0
    outer loop
      vertex 92 139 76
      vertex 92 111.292 62.5
      vertex 92 113.873 67.5664
    endloop
  endfacet
  facet normal -1 0 0
    outer loop
      vertex 92 138.29 28.4
      vertex 92 108.195 57.7312
      vertex 92 111.292 62.5
    endloop
  endfacet
  facet normal -1 0 0
    outer loop
      vertex 92 138.29 28.4
      vertex 92 107.586 56.794
      vertex 92 108.195 57.7312
    endloop
  endfacet
  facet normal -1 0 0
    outer loop
      vertex 92 138.29 28.4
      vertex 92 103.304 51.5065
      vertex 92 107.586 56.794
    endloop
  endfacet
  facet normal -1 0 0
    outer loop
      vertex 92 138.29 28.4
      vertex 92 98.4935 46.6956
      vertex 92 103.304 51.5065
    endloop
  endfacet
  facet normal -1 0 0
    outer loop
      vertex 92 138.29 28.4
      vertex 92 93.206 42.4139
      vertex 92 98.4935 46.6956
    endloop
  endfacet
  facet normal -1 0 0
    outer loop
      vertex 92 138.29 28.4
      vertex 92 87.5 38.7083
      vertex 92 93.206 42.4139
    endloop
  endfacet
  facet normal -1 0 0
    outer loop
      vertex 92 138.29 28.4
      vertex 92 81.4379 35.6195
      vertex 92 87.5 38.7083
    endloop
  endfacet
  facet normal -1 0 0
    outer loop
      vertex 92 138.29 28.4
      vertex 92 75.0861 33.1813
      vertex 92 81.4379 35.6195
    endloop
  endfacet
  facet normal -1 0 0
    outer loop
      vertex 92 138.29 28.4
      vertex 92 68.5143 31.4204
      vertex 92 75.0861 33.1813
    endloop
  endfacet
  facet normal -1 0 0
    outer loop
      vertex 92 60 28.4
      vertex 92 68.5143 31.4204
      vertex 92 138.29 28.4
    endloop
  endfacet
  facet normal -1 0 0
    outer loop
      vertex 92 68.5143 31.4204
      vertex 92 60 28.4
      vertex 92 61.7943 30.3561
    endloop
  endfacet
  facet normal -1 0 0
    outer loop
      vertex 92 61.7943 30.3561
      vertex 92 60 28.4
      vertex 92 60 30.262
    endloop
  endfacet
  facet normal -0 0 1
    outer loop
      vertex 18 139 28
      vertex 92 138.29 28
      vertex 92 139 28
    endloop
  endfacet
  facet normal 0 0 1
    outer loop
      vertex 92 138.29 28
      vertex 18 139 28
      vertex 18 138.29 28
    endloop
  endfacet
  facet normal 0 -1 0
    outer loop
      vertex 18 139 76
      vertex 55 139 45.8
      vertex 92 139 76
    endloop
  endfacet
  facet normal 0 -1 0
    outer loop
      vertex 18 139 76
      vertex 54.3937 139 45.7682
      vertex 55 139 45.8
    endloop
  endfacet
  facet normal 0 -1 0
    outer loop
      vertex 18 139 76
      vertex 53.7941 139 45.6733
      vertex 54.3937 139 45.7682
    endloop
  endfacet
  facet normal 0 -1 0
    outer loop
      vertex 18 139 76
      vertex 53.2077 139 45.5161
      vertex 53.7941 139 45.6733
    endloop
  endfacet
  facet normal 0 -1 0
    outer loop
      vertex 18 139 76
      vertex 52.6409 139 45.2986
      vertex 53.2077 139 45.5161
    endloop
  endfacet
  facet normal 0 -1 0
    outer loop
      vertex 18 139 76
      vertex 52.1 139 45.0229
      vertex 52.6409 139 45.2986
    endloop
  endfacet
  facet normal 0 -1 0
    outer loop
      vertex 18 139 76
      vertex 51.5908 139 44.6923
      vertex 52.1 139 45.0229
    endloop
  endfacet
  facet normal 0 -1 0
    outer loop
      vertex 18 139 76
      vertex 51.119 139 44.3102
      vertex 51.5908 139 44.6923
    endloop
  endfacet
  facet normal 0 -1 0
    outer loop
      vertex 18 139 76
      vertex 50.6898 139 43.881
      vertex 51.119 139 44.3102
    endloop
  endfacet
  facet normal 0 -1 0
    outer loop
      vertex 18 139 76
      vertex 50.3077 139 43.4092
      vertex 50.6898 139 43.881
    endloop
  endfacet
  facet normal 0 -1 0
    outer loop
      vertex 18 139 76
      vertex 49.9771 139 42.9
      vertex 50.3077 139 43.4092
    endloop
  endfacet
  facet normal 0 -1 0
    outer loop
      vertex 18 139 76
      vertex 49.7014 139 42.3591
      vertex 49.9771 139 42.9
    endloop
  endfacet
  facet normal 0 -1 0
    outer loop
      vertex 18 139 28
      vertex 49.7014 139 42.3591
      vertex 18 139 76
    endloop
  endfacet
  facet normal 0 -1 0
    outer loop
      vertex 49.7014 139 42.3591
      vertex 18 139 28
      vertex 49.4839 139 41.7923
    endloop
  endfacet
  facet normal 0 -1 0
    outer loop
      vertex 49.4839 139 41.7923
      vertex 18 139 28
      vertex 49.3267 139 41.2059
    endloop
  endfacet
  facet normal 0 -1 0
    outer loop
      vertex 49.3267 139 41.2059
      vertex 18 139 28
      vertex 49.2318 139 40.6063
    endloop
  endfacet
  facet normal 0 -1 0
    outer loop
      vertex 49.2318 139 40.6063
      vertex 18 139 28
      vertex 49.2 139 40
    endloop
  endfacet
  facet normal 0 -1 -0
    outer loop
      vertex 49.2 139 40
      vertex 18 139 28
      vertex 49.2318 139 39.3937
    endloop
  endfacet
  facet normal 0 -1 -0
    outer loop
      vertex 49.2318 139 39.3937
      vertex 18 139 28
      vertex 49.3267 139 38.7941
    endloop
  endfacet
  facet normal 0 -1 -0
    outer loop
      vertex 49.3267 139 38.7941
      vertex 18 139 28
      vertex 49.4839 139 38.2077
    endloop
  endfacet
  facet normal 0 -1 -0
    outer loop
      vertex 49.4839 139 38.2077
      vertex 18 139 28
      vertex 49.7014 139 37.6409
    endloop
  endfacet
  facet normal 0 -1 -0
    outer loop
      vertex 49.7014 139 37.6409
      vertex 18 139 28
      vertex 49.9771 139 37.1
    endloop
  endfacet
  facet normal 0 -1 -0
    outer loop
      vertex 49.9771 139 37.1
      vertex 18 139 28
      vertex 50.3077 139 36.5908
    endloop
  endfacet
  facet normal 0 -1 -0
    outer loop
      vertex 54.3937 139 34.2318
      vertex 18 139 28
      vertex 55 139 34.2
    endloop
  endfacet
  facet normal 0 -1 -0
    outer loop
      vertex 53.7941 139 34.3267
      vertex 18 139 28
      vertex 54.3937 139 34.2318
    endloop
  endfacet
  facet normal 0 -1 -0
    outer loop
      vertex 53.2077 139 34.4839
      vertex 18 139 28
      vertex 53.7941 139 34.3267
    endloop
  endfacet
  facet normal 0 -1 -0
    outer loop
      vertex 52.6409 139 34.7014
      vertex 18 139 28
      vertex 53.2077 139 34.4839
    endloop
  endfacet
  facet normal 0 -1 -0
    outer loop
      vertex 52.1 139 34.9771
      vertex 18 139 28
      vertex 52.6409 139 34.7014
    endloop
  endfacet
  facet normal 0 -1 -0
    outer loop
      vertex 51.5908 139 35.3077
      vertex 18 139 28
      vertex 52.1 139 34.9771
    endloop
  endfacet
  facet normal 0 -1 -0
    outer loop
      vertex 51.119 139 35.6898
      vertex 18 139 28
      vertex 51.5908 139 35.3077
    endloop
  endfacet
  facet normal 0 -1 -0
    outer loop
      vertex 50.6898 139 36.119
      vertex 18 139 28
      vertex 51.119 139 35.6898
    endloop
  endfacet
  facet normal 0 -1 -0
    outer loop
      vertex 50.3077 139 36.5908
      vertex 18 139 28
      vertex 50.6898 139 36.119
    endloop
  endfacet
  facet normal 0 -1 0
    outer loop
      vertex 55.6063 139 45.7682
      vertex 92 139 76
      vertex 55 139 45.8
    endloop
  endfacet
  facet normal 0 -1 0
    outer loop
      vertex 56.2059 139 45.6733
      vertex 92 139 76
      vertex 55.6063 139 45.7682
    endloop
  endfacet
  facet normal 0 -1 0
    outer loop
      vertex 56.7923 139 45.5161
      vertex 92 139 76
      vertex 56.2059 139 45.6733
    endloop
  endfacet
  facet normal 0 -1 0
    outer loop
      vertex 57.3591 139 45.2986
      vertex 92 139 76
      vertex 56.7923 139 45.5161
    endloop
  endfacet
  facet normal 0 -1 0
    outer loop
      vertex 57.9 139 45.0229
      vertex 92 139 76
      vertex 57.3591 139 45.2986
    endloop
  endfacet
  facet normal 0 -1 0
    outer loop
      vertex 58.4092 139 44.6923
      vertex 92 139 76
      vertex 57.9 139 45.0229
    endloop
  endfacet
  facet normal 0 -1 0
    outer loop
      vertex 58.881 139 44.3102
      vertex 92 139 76
      vertex 58.4092 139 44.6923
    endloop
  endfacet
  facet normal 0 -1 0
    outer loop
      vertex 59.3102 139 43.881
      vertex 92 139 76
      vertex 58.881 139 44.3102
    endloop
  endfacet
  facet normal 0 -1 0
    outer loop
      vertex 59.6923 139 43.4092
      vertex 92 139 76
      vertex 59.3102 139 43.881
    endloop
  endfacet
  facet normal 0 -1 0
    outer loop
      vertex 60.0229 139 42.9
      vertex 92 139 76
      vertex 59.6923 139 43.4092
    endloop
  endfacet
  facet normal 0 -1 0
    outer loop
      vertex 60.2986 139 42.3591
      vertex 92 139 76
      vertex 60.0229 139 42.9
    endloop
  endfacet
  facet normal 0 -1 0
    outer loop
      vertex 92 139 28
      vertex 60.2986 139 42.3591
      vertex 60.5161 139 41.7923
    endloop
  endfacet
  facet normal 0 -1 0
    outer loop
      vertex 92 139 28
      vertex 60.5161 139 41.7923
      vertex 60.6733 139 41.2059
    endloop
  endfacet
  facet normal 0 -1 0
    outer loop
      vertex 92 139 28
      vertex 60.6733 139 41.2059
      vertex 60.7682 139 40.6063
    endloop
  endfacet
  facet normal 0 -1 0
    outer loop
      vertex 92 139 28
      vertex 60.7682 139 40.6063
      vertex 60.8 139 40
    endloop
  endfacet
  facet normal 0 -1 0
    outer loop
      vertex 92 139 28
      vertex 60.8 139 40
      vertex 60.7682 139 39.3937
    endloop
  endfacet
  facet normal 0 -1 0
    outer loop
      vertex 92 139 28
      vertex 60.7682 139 39.3937
      vertex 60.6733 139 38.7941
    endloop
  endfacet
  facet normal 0 -1 0
    outer loop
      vertex 92 139 28
      vertex 60.6733 139 38.7941
      vertex 60.5161 139 38.2077
    endloop
  endfacet
  facet normal 0 -1 0
    outer loop
      vertex 92 139 28
      vertex 60.5161 139 38.2077
      vertex 60.2986 139 37.6409
    endloop
  endfacet
  facet normal 0 -1 0
    outer loop
      vertex 92 139 28
      vertex 60.2986 139 37.6409
      vertex 60.0229 139 37.1
    endloop
  endfacet
  facet normal 0 -1 0
    outer loop
      vertex 92 139 28
      vertex 60.0229 139 37.1
      vertex 59.6923 139 36.5908
    endloop
  endfacet
  facet normal 0 -1 0
    outer loop
      vertex 92 139 28
      vertex 59.6923 139 36.5908
      vertex 59.3102 139 36.119
    endloop
  endfacet
  facet normal 0 -1 0
    outer loop
      vertex 92 139 28
      vertex 55 139 34.2
      vertex 18 139 28
    endloop
  endfacet
  facet normal 0 -1 0
    outer loop
      vertex 55 139 34.2
      vertex 92 139 28
      vertex 55.6063 139 34.2318
    endloop
  endfacet
  facet normal 0 -1 0
    outer loop
      vertex 60.2986 139 42.3591
      vertex 92 139 28
      vertex 92 139 76
    endloop
  endfacet
  facet normal 0 -1 0
    outer loop
      vertex 58.881 139 35.6898
      vertex 92 139 28
      vertex 59.3102 139 36.119
    endloop
  endfacet
  facet normal 0 -1 0
    outer loop
      vertex 58.4092 139 35.3077
      vertex 92 139 28
      vertex 58.881 139 35.6898
    endloop
  endfacet
  facet normal 0 -1 0
    outer loop
      vertex 57.9 139 34.9771
      vertex 92 139 28
      vertex 58.4092 139 35.3077
    endloop
  endfacet
  facet normal 0 -1 0
    outer loop
      vertex 57.3591 139 34.7014
      vertex 92 139 28
      vertex 57.9 139 34.9771
    endloop
  endfacet
  facet normal 0 -1 0
    outer loop
      vertex 56.7923 139 34.4839
      vertex 92 139 28
      vertex 57.3591 139 34.7014
    endloop
  endfacet
  facet normal 0 -1 0
    outer loop
      vertex 56.2059 139 34.3267
      vertex 92 139 28
      vertex 56.7923 139 34.4839
    endloop
  endfacet
  facet normal 0 -1 0
    outer loop
      vertex 55.6063 139 34.2318
      vertex 92 139 28
      vertex 56.2059 139 34.3267
    endloop
  endfacet
  facet normal -0.99863 0 -0.0523352
    outer loop
      vertex 60.8 139 40
      vertex 60.7682 140 40.6063
      vertex 60.8 140 40
    endloop
  endfacet
  facet normal -0.99863 -0 -0.0523352
    outer loop
      vertex 60.7682 140 40.6063
      vertex 60.8 139 40
      vertex 60.7682 139 40.6063
    endloop
  endfacet
  facet normal -0.965926 0 -0.258818
    outer loop
      vertex 60.6733 139 41.2059
      vertex 60.5161 140 41.7923
      vertex 60.6733 140 41.2059
    endloop
  endfacet
  facet normal -0.965926 -0 -0.258818
    outer loop
      vertex 60.5161 140 41.7923
      vertex 60.6733 139 41.2059
      vertex 60.5161 139 41.7923
    endloop
  endfacet
  facet normal 0.0523352 0 -0.99863
    outer loop
      vertex 54.3937 139 45.7682
      vertex 55 140 45.8
      vertex 55 139 45.8
    endloop
  endfacet
  facet normal 0.0523352 0 -0.99863
    outer loop
      vertex 55 140 45.8
      vertex 54.3937 139 45.7682
      vertex 54.3937 140 45.7682
    endloop
  endfacet
  facet normal -0.707107 0 -0.707107
    outer loop
      vertex 59.3102 139 43.881
      vertex 58.881 140 44.3102
      vertex 59.3102 140 43.881
    endloop
  endfacet
  facet normal -0.707107 -0 -0.707107
    outer loop
      vertex 58.881 140 44.3102
      vertex 59.3102 139 43.881
      vertex 58.881 139 44.3102
    endloop
  endfacet
  facet normal 0.707107 0 -0.707107
    outer loop
      vertex 51.119 139 44.3102
      vertex 50.6898 140 43.881
      vertex 51.119 140 44.3102
    endloop
  endfacet
  facet normal 0.707107 0 -0.707107
    outer loop
      vertex 50.6898 140 43.881
      vertex 51.119 139 44.3102
      vertex 50.6898 139 43.881
    endloop
  endfacet
  facet normal 0.453984 0 -0.89101
    outer loop
      vertex 52.1 139 45.0229
      vertex 52.6409 140 45.2986
      vertex 52.6409 139 45.2986
    endloop
  endfacet
  facet normal 0.453984 0 -0.89101
    outer loop
      vertex 52.6409 140 45.2986
      vertex 52.1 139 45.0229
      vertex 52.1 140 45.0229
    endloop
  endfacet
  facet normal 0.707107 -0 0.707107
    outer loop
      vertex 50.6898 139 36.119
      vertex 51.119 140 35.6898
      vertex 50.6898 140 36.119
    endloop
  endfacet
  facet normal 0.707107 0 0.707107
    outer loop
      vertex 51.119 140 35.6898
      vertex 50.6898 139 36.119
      vertex 51.119 139 35.6898
    endloop
  endfacet
  facet normal -0.358374 0 -0.933578
    outer loop
      vertex 56.7923 139 45.5161
      vertex 57.3591 140 45.2986
      vertex 57.3591 139 45.2986
    endloop
  endfacet
  facet normal -0.358374 0 -0.933578
    outer loop
      vertex 57.3591 140 45.2986
      vertex 56.7923 139 45.5161
      vertex 56.7923 140 45.5161
    endloop
  endfacet
  facet normal 0.838668 0 -0.544643
    outer loop
      vertex 50.3077 139 43.4092
      vertex 49.9771 140 42.9
      vertex 50.3077 140 43.4092
    endloop
  endfacet
  facet normal 0.838668 0 -0.544643
    outer loop
      vertex 49.9771 140 42.9
      vertex 50.3077 139 43.4092
      vertex 49.9771 139 42.9
    endloop
  endfacet
  facet normal 0.99863 -0 0.0523352
    outer loop
      vertex 49.2 139 40
      vertex 49.2318 140 39.3937
      vertex 49.2 140 40
    endloop
  endfacet
  facet normal 0.99863 0 0.0523352
    outer loop
      vertex 49.2318 140 39.3937
      vertex 49.2 139 40
      vertex 49.2318 139 39.3937
    endloop
  endfacet
  facet normal 0.62932 0 -0.777146
    outer loop
      vertex 51.119 139 44.3102
      vertex 51.5908 140 44.6923
      vertex 51.5908 139 44.6923
    endloop
  endfacet
  facet normal 0.62932 0 -0.777146
    outer loop
      vertex 51.5908 140 44.6923
      vertex 51.119 139 44.3102
      vertex 51.119 140 44.3102
    endloop
  endfacet
  facet normal 0.258818 0 0.965926
    outer loop
      vertex 53.2077 140 34.4839
      vertex 53.7941 139 34.3267
      vertex 53.7941 140 34.3267
    endloop
  endfacet
  facet normal 0.258818 0 0.965926
    outer loop
      vertex 53.7941 139 34.3267
      vertex 53.2077 140 34.4839
      vertex 53.2077 139 34.4839
    endloop
  endfacet
  facet normal -0.891011 0 -0.453982
    outer loop
      vertex 60.2986 139 42.3591
      vertex 60.0229 140 42.9
      vertex 60.2986 140 42.3591
    endloop
  endfacet
  facet normal -0.891011 -0 -0.453982
    outer loop
      vertex 60.0229 140 42.9
      vertex 60.2986 139 42.3591
      vertex 60.0229 139 42.9
    endloop
  endfacet
  facet normal -0.933578 0 -0.358374
    outer loop
      vertex 60.5161 139 41.7923
      vertex 60.2986 140 42.3591
      vertex 60.5161 140 41.7923
    endloop
  endfacet
  facet normal -0.933578 -0 -0.358374
    outer loop
      vertex 60.2986 140 42.3591
      vertex 60.5161 139 41.7923
      vertex 60.2986 139 42.3591
    endloop
  endfacet
  facet normal -0.777149 0 -0.629317
    outer loop
      vertex 59.6923 139 43.4092
      vertex 59.3102 140 43.881
      vertex 59.6923 140 43.4092
    endloop
  endfacet
  facet normal -0.777149 -0 -0.629317
    outer loop
      vertex 59.3102 140 43.881
      vertex 59.6923 139 43.4092
      vertex 59.3102 139 43.881
    endloop
  endfacet
  facet normal -0.156435 0 -0.987688
    outer loop
      vertex 55.6063 139 45.7682
      vertex 56.2059 140 45.6733
      vertex 56.2059 139 45.6733
    endloop
  endfacet
  facet normal -0.156435 0 -0.987688
    outer loop
      vertex 56.2059 140 45.6733
      vertex 55.6063 139 45.7682
      vertex 55.6063 140 45.7682
    endloop
  endfacet
  facet normal -0.544643 0 -0.838668
    outer loop
      vertex 57.9 139 45.0229
      vertex 58.4092 140 44.6923
      vertex 58.4092 139 44.6923
    endloop
  endfacet
  facet normal -0.544643 0 -0.838668
    outer loop
      vertex 58.4092 140 44.6923
      vertex 57.9 139 45.0229
      vertex 57.9 140 45.0229
    endloop
  endfacet
  facet normal 0.93358 0 -0.358368
    outer loop
      vertex 49.7014 139 42.3591
      vertex 49.4839 140 41.7923
      vertex 49.7014 140 42.3591
    endloop
  endfacet
  facet normal 0.93358 0 -0.358368
    outer loop
      vertex 49.4839 140 41.7923
      vertex 49.7014 139 42.3591
      vertex 49.4839 139 41.7923
    endloop
  endfacet
  facet normal 0.891008 0 -0.453987
    outer loop
      vertex 49.9771 139 42.9
      vertex 49.7014 140 42.3591
      vertex 49.9771 140 42.9
    endloop
  endfacet
  facet normal 0.891008 0 -0.453987
    outer loop
      vertex 49.7014 140 42.3591
      vertex 49.9771 139 42.9
      vertex 49.7014 139 42.3591
    endloop
  endfacet
  facet normal 0.987688 0 -0.156435
    outer loop
      vertex 49.3267 139 41.2059
      vertex 49.2318 140 40.6063
      vertex 49.3267 140 41.2059
    endloop
  endfacet
  facet normal 0.987688 0 -0.156435
    outer loop
      vertex 49.2318 140 40.6063
      vertex 49.3267 139 41.2059
      vertex 49.2318 139 40.6063
    endloop
  endfacet
  facet normal 0.258818 0 -0.965926
    outer loop
      vertex 53.2077 139 45.5161
      vertex 53.7941 140 45.6733
      vertex 53.7941 139 45.6733
    endloop
  endfacet
  facet normal 0.258818 0 -0.965926
    outer loop
      vertex 53.7941 140 45.6733
      vertex 53.2077 139 45.5161
      vertex 53.2077 140 45.5161
    endloop
  endfacet
  facet normal -0.156435 0 0.987688
    outer loop
      vertex 55.6063 140 34.2318
      vertex 56.2059 139 34.3267
      vertex 56.2059 140 34.3267
    endloop
  endfacet
  facet normal -0.156435 0 0.987688
    outer loop
      vertex 56.2059 139 34.3267
      vertex 55.6063 140 34.2318
      vertex 55.6063 139 34.2318
    endloop
  endfacet
  facet normal -0.258818 0 0.965926
    outer loop
      vertex 56.2059 140 34.3267
      vertex 56.7923 139 34.4839
      vertex 56.7923 140 34.4839
    endloop
  endfacet
  facet normal -0.258818 0 0.965926
    outer loop
      vertex 56.7923 139 34.4839
      vertex 56.2059 140 34.3267
      vertex 56.2059 139 34.3267
    endloop
  endfacet
  facet normal -0.358368 0 0.93358
    outer loop
      vertex 56.7923 140 34.4839
      vertex 57.3591 139 34.7014
      vertex 57.3591 140 34.7014
    endloop
  endfacet
  facet normal -0.358368 0 0.93358
    outer loop
      vertex 57.3591 139 34.7014
      vertex 56.7923 140 34.4839
      vertex 56.7923 139 34.4839
    endloop
  endfacet
  facet normal -0.707107 0 0.707107
    outer loop
      vertex 58.881 139 35.6898
      vertex 59.3102 140 36.119
      vertex 58.881 140 35.6898
    endloop
  endfacet
  facet normal -0.707107 0 0.707107
    outer loop
      vertex 59.3102 140 36.119
      vertex 58.881 139 35.6898
      vertex 59.3102 139 36.119
    endloop
  endfacet
  facet normal -0.777146 0 0.62932
    outer loop
      vertex 59.3102 139 36.119
      vertex 59.6923 140 36.5908
      vertex 59.3102 140 36.119
    endloop
  endfacet
  facet normal -0.777146 0 0.62932
    outer loop
      vertex 59.6923 140 36.5908
      vertex 59.3102 139 36.119
      vertex 59.6923 139 36.5908
    endloop
  endfacet
  facet normal -0.83867 0 0.54464
    outer loop
      vertex 59.6923 139 36.5908
      vertex 60.0229 140 37.1
      vertex 59.6923 140 36.5908
    endloop
  endfacet
  facet normal -0.83867 0 0.54464
    outer loop
      vertex 60.0229 140 37.1
      vertex 59.6923 139 36.5908
      vertex 60.0229 139 37.1
    endloop
  endfacet
  facet normal -0.89101 0 0.453984
    outer loop
      vertex 60.0229 139 37.1
      vertex 60.2986 140 37.6409
      vertex 60.0229 140 37.1
    endloop
  endfacet
  facet normal -0.89101 0 0.453984
    outer loop
      vertex 60.2986 140 37.6409
      vertex 60.0229 139 37.1
      vertex 60.2986 139 37.6409
    endloop
  endfacet
  facet normal -0.99863 0 0.0523352
    outer loop
      vertex 60.7682 139 39.3937
      vertex 60.8 140 40
      vertex 60.7682 140 39.3937
    endloop
  endfacet
  facet normal -0.99863 0 0.0523352
    outer loop
      vertex 60.8 140 40
      vertex 60.7682 139 39.3937
      vertex 60.8 139 40
    endloop
  endfacet
  facet normal -0.965926 0 0.258818
    outer loop
      vertex 60.5161 139 38.2077
      vertex 60.6733 140 38.7941
      vertex 60.5161 140 38.2077
    endloop
  endfacet
  facet normal -0.965926 0 0.258818
    outer loop
      vertex 60.6733 140 38.7941
      vertex 60.5161 139 38.2077
      vertex 60.6733 139 38.7941
    endloop
  endfacet
  facet normal -0.987688 0 0.156435
    outer loop
      vertex 60.6733 139 38.7941
      vertex 60.7682 140 39.3937
      vertex 60.6733 140 38.7941
    endloop
  endfacet
  facet normal -0.987688 0 0.156435
    outer loop
      vertex 60.7682 140 39.3937
      vertex 60.6733 139 38.7941
      vertex 60.7682 139 39.3937
    endloop
  endfacet
  facet normal 0.62932 0 0.777146
    outer loop
      vertex 51.119 140 35.6898
      vertex 51.5908 139 35.3077
      vertex 51.5908 140 35.3077
    endloop
  endfacet
  facet normal 0.62932 0 0.777146
    outer loop
      vertex 51.5908 139 35.3077
      vertex 51.119 140 35.6898
      vertex 51.119 139 35.6898
    endloop
  endfacet
  facet normal -0.0523352 0 0.99863
    outer loop
      vertex 55 140 34.2
      vertex 55.6063 139 34.2318
      vertex 55.6063 140 34.2318
    endloop
  endfacet
  facet normal -0.0523352 0 0.99863
    outer loop
      vertex 55.6063 139 34.2318
      vertex 55 140 34.2
      vertex 55 139 34.2
    endloop
  endfacet
  facet normal 0.54464 0 0.83867
    outer loop
      vertex 51.5908 140 35.3077
      vertex 52.1 139 34.9771
      vertex 52.1 140 34.9771
    endloop
  endfacet
  facet normal 0.54464 0 0.83867
    outer loop
      vertex 52.1 139 34.9771
      vertex 51.5908 140 35.3077
      vertex 51.5908 139 35.3077
    endloop
  endfacet
  facet normal 0.83867 -0 0.54464
    outer loop
      vertex 49.9771 139 37.1
      vertex 50.3077 140 36.5908
      vertex 49.9771 140 37.1
    endloop
  endfacet
  facet normal 0.83867 0 0.54464
    outer loop
      vertex 50.3077 140 36.5908
      vertex 49.9771 139 37.1
      vertex 50.3077 139 36.5908
    endloop
  endfacet
  facet normal 0.987688 -0 0.156435
    outer loop
      vertex 49.2318 139 39.3937
      vertex 49.3267 140 38.7941
      vertex 49.2318 140 39.3937
    endloop
  endfacet
  facet normal 0.987688 0 0.156435
    outer loop
      vertex 49.3267 140 38.7941
      vertex 49.2318 139 39.3937
      vertex 49.3267 139 38.7941
    endloop
  endfacet
  facet normal -0.987688 0 -0.156435
    outer loop
      vertex 60.7682 139 40.6063
      vertex 60.6733 140 41.2059
      vertex 60.7682 140 40.6063
    endloop
  endfacet
  facet normal -0.987688 -0 -0.156435
    outer loop
      vertex 60.6733 140 41.2059
      vertex 60.7682 139 40.6063
      vertex 60.6733 139 41.2059
    endloop
  endfacet
  facet normal -0.838668 0 -0.544643
    outer loop
      vertex 60.0229 139 42.9
      vertex 59.6923 140 43.4092
      vertex 60.0229 140 42.9
    endloop
  endfacet
  facet normal -0.838668 -0 -0.544643
    outer loop
      vertex 59.6923 140 43.4092
      vertex 60.0229 139 42.9
      vertex 59.6923 139 43.4092
    endloop
  endfacet
  facet normal -0.0523352 0 -0.99863
    outer loop
      vertex 55 139 45.8
      vertex 55.6063 140 45.7682
      vertex 55.6063 139 45.7682
    endloop
  endfacet
  facet normal -0.0523352 0 -0.99863
    outer loop
      vertex 55.6063 140 45.7682
      vertex 55 139 45.8
      vertex 55 140 45.8
    endloop
  endfacet
  facet normal -0.258818 0 -0.965926
    outer loop
      vertex 56.2059 139 45.6733
      vertex 56.7923 140 45.5161
      vertex 56.7923 139 45.5161
    endloop
  endfacet
  facet normal -0.258818 0 -0.965926
    outer loop
      vertex 56.7923 140 45.5161
      vertex 56.2059 139 45.6733
      vertex 56.2059 140 45.6733
    endloop
  endfacet
  facet normal -0.453982 0 -0.891011
    outer loop
      vertex 57.3591 139 45.2986
      vertex 57.9 140 45.0229
      vertex 57.9 139 45.0229
    endloop
  endfacet
  facet normal -0.453982 0 -0.891011
    outer loop
      vertex 57.9 140 45.0229
      vertex 57.3591 139 45.2986
      vertex 57.3591 140 45.2986
    endloop
  endfacet
  facet normal -0.629317 0 -0.777149
    outer loop
      vertex 58.4092 139 44.6923
      vertex 58.881 140 44.3102
      vertex 58.881 139 44.3102
    endloop
  endfacet
  facet normal -0.629317 0 -0.777149
    outer loop
      vertex 58.881 140 44.3102
      vertex 58.4092 139 44.6923
      vertex 58.4092 140 44.6923
    endloop
  endfacet
  facet normal 0.777149 0 -0.629317
    outer loop
      vertex 50.6898 139 43.881
      vertex 50.3077 140 43.4092
      vertex 50.6898 140 43.881
    endloop
  endfacet
  facet normal 0.777149 0 -0.629317
    outer loop
      vertex 50.3077 140 43.4092
      vertex 50.6898 139 43.881
      vertex 50.3077 139 43.4092
    endloop
  endfacet
  facet normal 0.99863 0 -0.0523352
    outer loop
      vertex 49.2318 139 40.6063
      vertex 49.2 140 40
      vertex 49.2318 140 40.6063
    endloop
  endfacet
  facet normal 0.99863 0 -0.0523352
    outer loop
      vertex 49.2 140 40
      vertex 49.2318 139 40.6063
      vertex 49.2 139 40
    endloop
  endfacet
  facet normal 0.965926 0 -0.258818
    outer loop
      vertex 49.4839 139 41.7923
      vertex 49.3267 140 41.2059
      vertex 49.4839 140 41.7923
    endloop
  endfacet
  facet normal 0.965926 0 -0.258818
    outer loop
      vertex 49.3267 140 41.2059
      vertex 49.4839 139 41.7923
      vertex 49.3267 139 41.2059
    endloop
  endfacet
  facet normal 0.54464 0 -0.83867
    outer loop
      vertex 51.5908 139 44.6923
      vertex 52.1 140 45.0229
      vertex 52.1 139 45.0229
    endloop
  endfacet
  facet normal 0.54464 0 -0.83867
    outer loop
      vertex 52.1 140 45.0229
      vertex 51.5908 139 44.6923
      vertex 51.5908 140 44.6923
    endloop
  endfacet
  facet normal 0.358371 0 -0.933579
    outer loop
      vertex 52.6409 139 45.2986
      vertex 53.2077 140 45.5161
      vertex 53.2077 139 45.5161
    endloop
  endfacet
  facet normal 0.358371 0 -0.933579
    outer loop
      vertex 53.2077 140 45.5161
      vertex 52.6409 139 45.2986
      vertex 52.6409 140 45.2986
    endloop
  endfacet
  facet normal 0.156435 0 -0.987688
    outer loop
      vertex 53.7941 139 45.6733
      vertex 54.3937 140 45.7682
      vertex 54.3937 139 45.7682
    endloop
  endfacet
  facet normal 0.156435 0 -0.987688
    outer loop
      vertex 54.3937 140 45.7682
      vertex 53.7941 139 45.6733
      vertex 53.7941 140 45.6733
    endloop
  endfacet
  facet normal -0.453987 0 0.891008
    outer loop
      vertex 57.3591 140 34.7014
      vertex 57.9 139 34.9771
      vertex 57.9 140 34.9771
    endloop
  endfacet
  facet normal -0.453987 0 0.891008
    outer loop
      vertex 57.9 139 34.9771
      vertex 57.3591 140 34.7014
      vertex 57.3591 139 34.7014
    endloop
  endfacet
  facet normal -0.544643 0 0.838668
    outer loop
      vertex 57.9 140 34.9771
      vertex 58.4092 139 35.3077
      vertex 58.4092 140 35.3077
    endloop
  endfacet
  facet normal -0.544643 0 0.838668
    outer loop
      vertex 58.4092 139 35.3077
      vertex 57.9 140 34.9771
      vertex 57.9 139 34.9771
    endloop
  endfacet
  facet normal -0.629317 0 0.777149
    outer loop
      vertex 58.4092 140 35.3077
      vertex 58.881 139 35.6898
      vertex 58.881 140 35.6898
    endloop
  endfacet
  facet normal -0.629317 0 0.777149
    outer loop
      vertex 58.881 139 35.6898
      vertex 58.4092 140 35.3077
      vertex 58.4092 139 35.3077
    endloop
  endfacet
  facet normal -0.933579 0 0.358371
    outer loop
      vertex 60.2986 139 37.6409
      vertex 60.5161 140 38.2077
      vertex 60.2986 140 37.6409
    endloop
  endfacet
  facet normal -0.933579 0 0.358371
    outer loop
      vertex 60.5161 140 38.2077
      vertex 60.2986 139 37.6409
      vertex 60.5161 139 38.2077
    endloop
  endfacet
  facet normal 0.156435 0 0.987688
    outer loop
      vertex 53.7941 140 34.3267
      vertex 54.3937 139 34.2318
      vertex 54.3937 140 34.2318
    endloop
  endfacet
  facet normal 0.156435 0 0.987688
    outer loop
      vertex 54.3937 139 34.2318
      vertex 53.7941 140 34.3267
      vertex 53.7941 139 34.3267
    endloop
  endfacet
  facet normal 0.0523352 0 0.99863
    outer loop
      vertex 54.3937 140 34.2318
      vertex 55 139 34.2
      vertex 55 140 34.2
    endloop
  endfacet
  facet normal 0.0523352 0 0.99863
    outer loop
      vertex 55 139 34.2
      vertex 54.3937 140 34.2318
      vertex 54.3937 139 34.2318
    endloop
  endfacet
  facet normal 0.453989 0 0.891007
    outer loop
      vertex 52.1 140 34.9771
      vertex 52.6409 139 34.7014
      vertex 52.6409 140 34.7014
    endloop
  endfacet
  facet normal 0.453989 0 0.891007
    outer loop
      vertex 52.6409 139 34.7014
      vertex 52.1 140 34.9771
      vertex 52.1 139 34.9771
    endloop
  endfacet
  facet normal 0.358366 0 0.933581
    outer loop
      vertex 52.6409 140 34.7014
      vertex 53.2077 139 34.4839
      vertex 53.2077 140 34.4839
    endloop
  endfacet
  facet normal 0.358366 0 0.933581
    outer loop
      vertex 53.2077 139 34.4839
      vertex 52.6409 140 34.7014
      vertex 52.6409 139 34.7014
    endloop
  endfacet
  facet normal 0.777146 -0 0.62932
    outer loop
      vertex 50.3077 139 36.5908
      vertex 50.6898 140 36.119
      vertex 50.3077 140 36.5908
    endloop
  endfacet
  facet normal 0.777146 0 0.62932
    outer loop
      vertex 50.6898 140 36.119
      vertex 50.3077 139 36.5908
      vertex 50.6898 139 36.119
    endloop
  endfacet
  facet normal 0.965926 -0 0.258818
    outer loop
      vertex 49.3267 139 38.7941
      vertex 49.4839 140 38.2077
      vertex 49.3267 140 38.7941
    endloop
  endfacet
  facet normal 0.965926 0 0.258818
    outer loop
      vertex 49.4839 140 38.2077
      vertex 49.3267 139 38.7941
      vertex 49.4839 139 38.2077
    endloop
  endfacet
  facet normal 0.933581 -0 0.358366
    outer loop
      vertex 49.4839 139 38.2077
      vertex 49.7014 140 37.6409
      vertex 49.4839 140 38.2077
    endloop
  endfacet
  facet normal 0.933581 0 0.358366
    outer loop
      vertex 49.7014 140 37.6409
      vertex 49.4839 139 38.2077
      vertex 49.7014 139 37.6409
    endloop
  endfacet
  facet normal 0.891007 -0 0.453989
    outer loop
      vertex 49.7014 139 37.6409
      vertex 49.9771 140 37.1
      vertex 49.7014 140 37.6409
    endloop
  endfacet
  facet normal 0.891007 0 0.453989
    outer loop
      vertex 49.9771 140 37.1
      vertex 49.7014 139 37.6409
      vertex 49.9771 139 37.1
    endloop
  endfacet
  facet normal -1 0 0
    outer loop
      vertex 0 111.288 62.4948
      vertex 0 140 80
      vertex 0 140 0
    endloop
  endfacet
  facet normal -1 -0 0
    outer loop
      vertex 0 140 80
      vertex 0 116.819 74.9139
      vertex 0 118.181 80
    endloop
  endfacet
  facet normal -1 0 0
    outer loop
      vertex 0 140 80
      vertex 0 114.38 68.5621
      vertex 0 116.819 74.9139
    endloop
  endfacet
  facet normal -1 0 0
    outer loop
      vertex 0 140 80
      vertex 0 111.294 62.5055
      vertex 0 114.38 68.5621
    endloop
  endfacet
  facet normal -1 0 0
    outer loop
      vertex 0 140 80
      vertex 0 111.292 62.5
      vertex 0 111.294 62.5055
    endloop
  endfacet
  facet normal -1 0 0
    outer loop
      vertex 0 140 80
      vertex 0 111.288 62.4948
      vertex 0 111.292 62.5
    endloop
  endfacet
  facet normal -1 0 0
    outer loop
      vertex 0 140 0
      vertex 0 107.586 56.794
      vertex 0 111.288 62.4948
    endloop
  endfacet
  facet normal -1 0 0
    outer loop
      vertex 0 140 0
      vertex 0 103.304 51.5065
      vertex 0 107.586 56.794
    endloop
  endfacet
  facet normal -1 0 0
    outer loop
      vertex 0 140 0
      vertex 0 98.4935 46.6956
      vertex 0 103.304 51.5065
    endloop
  endfacet
  facet normal -1 0 0
    outer loop
      vertex 0 140 0
      vertex 0 93.206 42.4139
      vertex 0 98.4935 46.6956
    endloop
  endfacet
  facet normal -1 0 0
    outer loop
      vertex 0 140 0
      vertex 0 87.5 38.7083
      vertex 0 93.206 42.4139
    endloop
  endfacet
  facet normal -1 0 0
    outer loop
      vertex 0 140 0
      vertex 0 81.4379 35.6195
      vertex 0 87.5 38.7083
    endloop
  endfacet
  facet normal -1 0 0
    outer loop
      vertex 0 60 0
      vertex 0 81.4379 35.6195
      vertex 0 140 0
    endloop
  endfacet
  facet normal -1 0 0
    outer loop
      vertex 0 81.4379 35.6195
      vertex 0 60 0
      vertex 0 75.0861 33.1813
    endloop
  endfacet
  facet normal -1 0 0
    outer loop
      vertex 0 75.0861 33.1813
      vertex 0 60 0
      vertex 0 68.5143 31.4204
    endloop
  endfacet
  facet normal -1 0 0
    outer loop
      vertex 0 68.5143 31.4204
      vertex 0 60 0
      vertex 0 61.7943 30.3561
    endloop
  endfacet
  facet normal -1 0 0
    outer loop
      vertex 0 61.7943 30.3561
      vertex 0 60 0
      vertex 0 60 30.262
    endloop
  endfacet
  facet normal -0 0 1
    outer loop
      vertex 0 140 80
      vertex 110 118.181 80
      vertex 110 140 80
    endloop
  endfacet
  facet normal 0 0 1
    outer loop
      vertex 110 118.181 80
      vertex 0 140 80
      vertex 0 118.181 80
    endloop
  endfacet
  facet normal 1 0 0
    outer loop
      vertex 110 116.819 74.9139
      vertex 110 140 80
      vertex 110 118.181 80
    endloop
  endfacet
  facet normal 1 0 0
    outer loop
      vertex 110 114.38 68.5621
      vertex 110 140 80
      vertex 110 116.819 74.9139
    endloop
  endfacet
  facet normal 1 0 0
    outer loop
      vertex 110 114.378 68.5566
      vertex 110 140 80
      vertex 110 114.38 68.5621
    endloop
  endfacet
  facet normal 1 0 0
    outer loop
      vertex 110 111.292 62.5
      vertex 110 140 80
      vertex 110 114.378 68.5566
    endloop
  endfacet
  facet normal 1 0 0
    outer loop
      vertex 110 140 80
      vertex 110 111.292 62.5
      vertex 110 140 0
    endloop
  endfacet
  facet normal 1 -0 0
    outer loop
      vertex 110 107.589 56.7991
      vertex 110 140 0
      vertex 110 111.292 62.5
    endloop
  endfacet
  facet normal 1 -0 0
    outer loop
      vertex 110 107.586 56.794
      vertex 110 140 0
      vertex 110 107.589 56.7991
    endloop
  endfacet
  facet normal 1 -0 0
    outer loop
      vertex 110 103.304 51.5065
      vertex 110 140 0
      vertex 110 107.586 56.794
    endloop
  endfacet
  facet normal 1 -0 0
    outer loop
      vertex 110 98.4935 46.6956
      vertex 110 140 0
      vertex 110 103.304 51.5065
    endloop
  endfacet
  facet normal 1 -0 0
    outer loop
      vertex 110 93.206 42.4139
      vertex 110 140 0
      vertex 110 98.4935 46.6956
    endloop
  endfacet
  facet normal 1 -0 0
    outer loop
      vertex 110 87.5 38.7083
      vertex 110 140 0
      vertex 110 93.206 42.4139
    endloop
  endfacet
  facet normal 1 -0 0
    outer loop
      vertex 110 81.4379 35.6195
      vertex 110 140 0
      vertex 110 87.5 38.7083
    endloop
  endfacet
  facet normal 1 0 0
    outer loop
      vertex 110 60 0
      vertex 110 81.4379 35.6195
      vertex 110 75.0861 33.1813
    endloop
  endfacet
  facet normal 1 0 0
    outer loop
      vertex 110 60 0
      vertex 110 75.0861 33.1813
      vertex 110 68.5143 31.4204
    endloop
  endfacet
  facet normal 1 0 0
    outer loop
      vertex 110 60 0
      vertex 110 68.5143 31.4204
      vertex 110 61.7943 30.3561
    endloop
  endfacet
  facet normal 1 0 0
    outer loop
      vertex 110 60 0
      vertex 110 61.7943 30.3561
      vertex 110 60 30.262
    endloop
  endfacet
  facet normal 1 0 0
    outer loop
      vertex 110 81.4379 35.6195
      vertex 110 60 0
      vertex 110 140 0
    endloop
  endfacet
  facet normal 0 1 0
    outer loop
      vertex 110 140 80
      vertex 55 140 45.8
      vertex 0 140 80
    endloop
  endfacet
  facet normal 0 1 0
    outer loop
      vertex 110 140 80
      vertex 55.6063 140 45.7682
      vertex 55 140 45.8
    endloop
  endfacet
  facet normal 0 1 0
    outer loop
      vertex 110 140 80
      vertex 56.2059 140 45.6733
      vertex 55.6063 140 45.7682
    endloop
  endfacet
  facet normal 0 1 0
    outer loop
      vertex 110 140 80
      vertex 56.7923 140 45.5161
      vertex 56.2059 140 45.6733
    endloop
  endfacet
  facet normal 0 1 0
    outer loop
      vertex 110 140 80
      vertex 57.3591 140 45.2986
      vertex 56.7923 140 45.5161
    endloop
  endfacet
  facet normal 0 1 0
    outer loop
      vertex 110 140 80
      vertex 57.9 140 45.0229
      vertex 57.3591 140 45.2986
    endloop
  endfacet
  facet normal 0 1 0
    outer loop
      vertex 110 140 80
      vertex 58.4092 140 44.6923
      vertex 57.9 140 45.0229
    endloop
  endfacet
  facet normal 0 1 0
    outer loop
      vertex 110 140 80
      vertex 58.881 140 44.3102
      vertex 58.4092 140 44.6923
    endloop
  endfacet
  facet normal 0 1 0
    outer loop
      vertex 110 140 80
      vertex 59.3102 140 43.881
      vertex 58.881 140 44.3102
    endloop
  endfacet
  facet normal 0 1 0
    outer loop
      vertex 110 140 80
      vertex 59.6923 140 43.4092
      vertex 59.3102 140 43.881
    endloop
  endfacet
  facet normal 0 1 0
    outer loop
      vertex 110 140 80
      vertex 60.0229 140 42.9
      vertex 59.6923 140 43.4092
    endloop
  endfacet
  facet normal 0 1 0
    outer loop
      vertex 110 140 80
      vertex 60.2986 140 42.3591
      vertex 60.0229 140 42.9
    endloop
  endfacet
  facet normal 0 1 0
    outer loop
      vertex 110 140 80
      vertex 60.5161 140 41.7923
      vertex 60.2986 140 42.3591
    endloop
  endfacet
  facet normal 0 1 0
    outer loop
      vertex 110 140 80
      vertex 60.6733 140 41.2059
      vertex 60.5161 140 41.7923
    endloop
  endfacet
  facet normal 0 1 0
    outer loop
      vertex 110 140 80
      vertex 60.7682 140 40.6063
      vertex 60.6733 140 41.2059
    endloop
  endfacet
  facet normal 0 1 0
    outer loop
      vertex 110 140 80
      vertex 60.8 140 40
      vertex 60.7682 140 40.6063
    endloop
  endfacet
  facet normal 0 1 -0
    outer loop
      vertex 110 140 0
      vertex 60.8 140 40
      vertex 110 140 80
    endloop
  endfacet
  facet normal 0 1 0
    outer loop
      vertex 60.8 140 40
      vertex 110 140 0
      vertex 60.7682 140 39.3937
    endloop
  endfacet
  facet normal 0 1 0
    outer loop
      vertex 60.7682 140 39.3937
      vertex 110 140 0
      vertex 60.6733 140 38.7941
    endloop
  endfacet
  facet normal 0 1 0
    outer loop
      vertex 60.6733 140 38.7941
      vertex 110 140 0
      vertex 60.5161 140 38.2077
    endloop
  endfacet
  facet normal 0 1 0
    outer loop
      vertex 60.5161 140 38.2077
      vertex 110 140 0
      vertex 60.2986 140 37.6409
    endloop
  endfacet
  facet normal 0 1 0
    outer loop
      vertex 60.2986 140 37.6409
      vertex 110 140 0
      vertex 60.0229 140 37.1
    endloop
  endfacet
  facet normal 0 1 0
    outer loop
      vertex 60.0229 140 37.1
      vertex 110 140 0
      vertex 59.6923 140 36.5908
    endloop
  endfacet
  facet normal 0 1 0
    outer loop
      vertex 59.6923 140 36.5908
      vertex 110 140 0
      vertex 59.3102 140 36.119
    endloop
  endfacet
  facet normal 0 1 0
    outer loop
      vertex 55.6063 140 34.2318
      vertex 110 140 0
      vertex 55 140 34.2
    endloop
  endfacet
  facet normal 0 1 0
    outer loop
      vertex 56.2059 140 34.3267
      vertex 110 140 0
      vertex 55.6063 140 34.2318
    endloop
  endfacet
  facet normal 0 1 0
    outer loop
      vertex 56.7923 140 34.4839
      vertex 110 140 0
      vertex 56.2059 140 34.3267
    endloop
  endfacet
  facet normal 0 1 0
    outer loop
      vertex 57.3591 140 34.7014
      vertex 110 140 0
      vertex 56.7923 140 34.4839
    endloop
  endfacet
  facet normal 0 1 0
    outer loop
      vertex 57.9 140 34.9771
      vertex 110 140 0
      vertex 57.3591 140 34.7014
    endloop
  endfacet
  facet normal 0 1 0
    outer loop
      vertex 58.4092 140 35.3077
      vertex 110 140 0
      vertex 57.9 140 34.9771
    endloop
  endfacet
  facet normal 0 1 0
    outer loop
      vertex 58.881 140 35.6898
      vertex 110 140 0
      vertex 58.4092 140 35.3077
    endloop
  endfacet
  facet normal 0 1 0
    outer loop
      vertex 59.3102 140 36.119
      vertex 110 140 0
      vertex 58.881 140 35.6898
    endloop
  endfacet
  facet normal 0 1 -0
    outer loop
      vertex 54.3937 140 45.7682
      vertex 0 140 80
      vertex 55 140 45.8
    endloop
  endfacet
  facet normal 0 1 -0
    outer loop
      vertex 53.7941 140 45.6733
      vertex 0 140 80
      vertex 54.3937 140 45.7682
    endloop
  endfacet
  facet normal 0 1 -0
    outer loop
      vertex 53.2077 140 45.5161
      vertex 0 140 80
      vertex 53.7941 140 45.6733
    endloop
  endfacet
  facet normal 0 1 -0
    outer loop
      vertex 52.6409 140 45.2986
      vertex 0 140 80
      vertex 53.2077 140 45.5161
    endloop
  endfacet
  facet normal 0 1 -0
    outer loop
      vertex 52.1 140 45.0229
      vertex 0 140 80
      vertex 52.6409 140 45.2986
    endloop
  endfacet
  facet normal 0 1 -0
    outer loop
      vertex 51.5908 140 44.6923
      vertex 0 140 80
      vertex 52.1 140 45.0229
    endloop
  endfacet
  facet normal 0 1 -0
    outer loop
      vertex 51.119 140 44.3102
      vertex 0 140 80
      vertex 51.5908 140 44.6923
    endloop
  endfacet
  facet normal 0 1 -0
    outer loop
      vertex 50.6898 140 43.881
      vertex 0 140 80
      vertex 51.119 140 44.3102
    endloop
  endfacet
  facet normal 0 1 -0
    outer loop
      vertex 50.3077 140 43.4092
      vertex 0 140 80
      vertex 50.6898 140 43.881
    endloop
  endfacet
  facet normal 0 1 -0
    outer loop
      vertex 49.9771 140 42.9
      vertex 0 140 80
      vertex 50.3077 140 43.4092
    endloop
  endfacet
  facet normal 0 1 -0
    outer loop
      vertex 49.7014 140 42.3591
      vertex 0 140 80
      vertex 49.9771 140 42.9
    endloop
  endfacet
  facet normal 0 1 -0
    outer loop
      vertex 49.4839 140 41.7923
      vertex 0 140 80
      vertex 49.7014 140 42.3591
    endloop
  endfacet
  facet normal 0 1 -0
    outer loop
      vertex 49.3267 140 41.2059
      vertex 0 140 80
      vertex 49.4839 140 41.7923
    endloop
  endfacet
  facet normal 0 1 -0
    outer loop
      vertex 49.2318 140 40.6063
      vertex 0 140 80
      vertex 49.3267 140 41.2059
    endloop
  endfacet
  facet normal 0 1 -0
    outer loop
      vertex 49.2 140 40
      vertex 0 140 80
      vertex 49.2318 140 40.6063
    endloop
  endfacet
  facet normal 0 1 0
    outer loop
      vertex 0 140 0
      vertex 49.2 140 40
      vertex 49.2318 140 39.3937
    endloop
  endfacet
  facet normal 0 1 0
    outer loop
      vertex 0 140 0
      vertex 49.2318 140 39.3937
      vertex 49.3267 140 38.7941
    endloop
  endfacet
  facet normal 0 1 0
    outer loop
      vertex 0 140 0
      vertex 49.3267 140 38.7941
      vertex 49.4839 140 38.2077
    endloop
  endfacet
  facet normal 0 1 0
    outer loop
      vertex 0 140 0
      vertex 49.4839 140 38.2077
      vertex 49.7014 140 37.6409
    endloop
  endfacet
  facet normal 0 1 0
    outer loop
      vertex 0 140 0
      vertex 49.7014 140 37.6409
      vertex 49.9771 140 37.1
    endloop
  endfacet
  facet normal 0 1 0
    outer loop
      vertex 0 140 0
      vertex 49.9771 140 37.1
      vertex 50.3077 140 36.5908
    endloop
  endfacet
  facet normal 0 1 0
    outer loop
      vertex 0 140 0
      vertex 50.3077 140 36.5908
      vertex 50.6898 140 36.119
    endloop
  endfacet
  facet normal 0 1 0
    outer loop
      vertex 0 140 0
      vertex 50.6898 140 36.119
      vertex 51.119 140 35.6898
    endloop
  endfacet
  facet normal 0 1 0
    outer loop
      vertex 0 140 0
      vertex 55 140 34.2
      vertex 110 140 0
    endloop
  endfacet
  facet normal 0 1 0
    outer loop
      vertex 55 140 34.2
      vertex 0 140 0
      vertex 54.3937 140 34.2318
    endloop
  endfacet
  facet normal 0 1 0
    outer loop
      vertex 54.3937 140 34.2318
      vertex 0 140 0
      vertex 53.7941 140 34.3267
    endloop
  endfacet
  facet normal 0 1 0
    outer loop
      vertex 53.7941 140 34.3267
      vertex 0 140 0
      vertex 53.2077 140 34.4839
    endloop
  endfacet
  facet normal 0 1 0
    outer loop
      vertex 53.2077 140 34.4839
      vertex 0 140 0
      vertex 52.6409 140 34.7014
    endloop
  endfacet
  facet normal 0 1 0
    outer loop
      vertex 49.2 140 40
      vertex 0 140 0
      vertex 0 140 80
    endloop
  endfacet
  facet normal 0 1 0
    outer loop
      vertex 51.5908 140 35.3077
      vertex 0 140 0
      vertex 51.119 140 35.6898
    endloop
  endfacet
  facet normal 0 1 0
    outer loop
      vertex 52.1 140 34.9771
      vertex 0 140 0
      vertex 51.5908 140 35.3077
    endloop
  endfacet
  facet normal 0 1 0
    outer loop
      vertex 52.6409 140 34.7014
      vertex 0 140 0
      vertex 52.1 140 34.9771
    endloop
  endfacet
  facet normal 0 0 -1
    outer loop
      vertex 10 60 0
      vertex 0 60 0
      vertex 10 127.4 0
    endloop
  endfacet
  facet normal 0 0 -1
    outer loop
      vertex 100 127.4 0
      vertex 110 60 0
      vertex 100 60 0
    endloop
  endfacet
  facet normal 0 0 -1
    outer loop
      vertex 110 60 0
      vertex 100 127.4 0
      vertex 110 140 0
    endloop
  endfacet
  facet normal 0 0 -1
    outer loop
      vertex 10 127.4 0
      vertex 110 140 0
      vertex 100 127.4 0
    endloop
  endfacet
  facet normal 0 0 -1
    outer loop
      vertex 10 127.4 0
      vertex 0 140 0
      vertex 110 140 0
    endloop
  endfacet
  facet normal 0 0 -1
    outer loop
      vertex 0 140 0
      vertex 10 127.4 0
      vertex 0 60 0
    endloop
  endfacet
  facet normal 0 -1 0
    outer loop
      vertex 0 60 30.262
      vertex 1.6 60 28.4
      vertex 18 60 30.262
    endloop
  endfacet
  facet normal 0 -1 0
    outer loop
      vertex 0 60 0
      vertex 1.6 60 28.4
      vertex 0 60 30.262
    endloop
  endfacet
  facet normal 0 -1 -0
    outer loop
      vertex 1.6 60 28.4
      vertex 0 60 0
      vertex 1.6 60 1.6
    endloop
  endfacet
  facet normal 0 -1 0
    outer loop
      vertex 10 60 0
      vertex 1.6 60 1.6
      vertex 0 60 0
    endloop
  endfacet
  facet normal 0 -1 0
    outer loop
      vertex 1.6 60 1.6
      vertex 10 60 0
      vertex 10 60 1.6
    endloop
  endfacet
  facet normal 0 -1 -0
    outer loop
      vertex 18 60 30.262
      vertex 1.6 60 28.4
      vertex 18 60 28.4
    endloop
  endfacet
  facet normal 0 -1 0
    outer loop
      vertex 100 60 1.6
      vertex 100 60 0
      vertex 108.4 60 1.6
    endloop
  endfacet
  facet normal 0 -1 0
    outer loop
      vertex 108.4 60 28.4
      vertex 92 60 30.262
      vertex 92 60 28.4
    endloop
  endfacet
  facet normal 0 -1 0
    outer loop
      vertex 92 60 30.262
      vertex 108.4 60 28.4
      vertex 110 60 30.262
    endloop
  endfacet
  facet normal 0 -1 0
    outer loop
      vertex 110 60 0
      vertex 108.4 60 28.4
      vertex 108.4 60 1.6
    endloop
  endfacet
  facet normal 0 -1 0
    outer loop
      vertex 108.4 60 28.4
      vertex 110 60 0
      vertex 110 60 30.262
    endloop
  endfacet
  facet normal 0 -1 0
    outer loop
      vertex 110 60 0
      vertex 108.4 60 1.6
      vertex 100 60 0
    endloop
  endfacet
endsolid OpenSCAD_Model
